  0
SECTION
  2
HEADER
  9
$EXTMIN
 10
10.531250
 20
-46.050000
  9
$EXTMAX
 10
43.961843
 20
-6.112500
  0
ENDSEC
0
SECTION
2
TABLES
0
TABLE
0
LAYER
2
Background
62
1
0
ENDTAB
0
ENDSEC
0
SECTION
2
ENTITIES
  0
LINE
  8
Background
  6
DOT
 10
24.850000
 20
-9.600000
 11
40.850000
 21
-9.600000
 39
0
 62
3
  0
LINE
  8
Background
  6
DOT
 10
40.850000
 20
-9.600000
 11
40.850000
 21
-24.050000
 39
0
 62
3
  0
LINE
  8
Background
  6
DOT
 10
40.850000
 20
-24.050000
 11
24.850000
 21
-24.050000
 39
0
 62
3
  0
LINE
  8
Background
  6
DOT
 10
24.850000
 20
-24.050000
 11
24.850000
 21
-9.600000
 39
0
 62
3
  0
TEXT
  8
Background
  6
DOT
 10
32.850000
 20
-17.020000
 40
0.800000
 50
0.000000
 72
1
  7
0
  1

 39
1
 62
0
  0
LINE
  8
Background
  6
CONTINUOUS
 10
15.195383
 20
-22.000180
 11
15.248648
 21
-24.113025
 39
0
 62
0
  0
LINE
  8
Background
  6
CONTINUOUS
 10
15.258098
 20
-24.487906
 11
14.995577
 21
-23.994365
 39
0
 62
0
  0
LINE
  8
Background
  6
CONTINUOUS
 10
14.995577
 20
-23.994365
 11
15.248648
 21
-24.113025
 39
0
 62
0
  0
LINE
  8
Background
  6
CONTINUOUS
 10
15.248648
 20
-24.113025
 11
15.495418
 21
-23.981764
 39
0
 62
0
  0
LINE
  8
Background
  6
CONTINUOUS
 10
15.495418
 20
-23.981764
 11
15.258098
 21
-24.487906
 39
0
 62
0
  0
SOLID
 62
7
 10
10.800000
 20
-27.650000
 11
10.800000
 21
-24.650000
 12
19.800000
 22
-27.650000
 13
19.800000
 23
-24.650000
  0
LINE
  8
Background
  6
CONTINUOUS
 10
10.800000
 20
-24.650000
 11
19.800000
 21
-24.650000
 39
0
 62
0
  0
LINE
  8
Background
  6
CONTINUOUS
 10
19.800000
 20
-24.650000
 11
19.800000
 21
-27.650000
 39
0
 62
0
  0
LINE
  8
Background
  6
CONTINUOUS
 10
19.800000
 20
-27.650000
 11
10.800000
 21
-27.650000
 39
0
 62
0
  0
LINE
  8
Background
  6
CONTINUOUS
 10
10.800000
 20
-27.650000
 11
10.800000
 21
-24.650000
 39
0
 62
0
  0
TEXT
  8
Background
  6
CONTINUOUS
 10
15.300000
 20
-26.345000
 40
0.800000
 50
0.000000
 72
1
  7
0
  1
Archive
 39
1
 62
0
  0
LINE
  8
Background
  6
CONTINUOUS
 10
19.718750
 20
-20.200000
 11
27.212610
 21
-13.426428
 39
0
 62
0
  0
LINE
  8
Background
  6
CONTINUOUS
 10
27.490808
 20
-13.174970
 11
27.287516
 21
-13.695713
 39
0
 62
0
  0
LINE
  8
Background
  6
CONTINUOUS
 10
27.287516
 20
-13.695713
 11
27.212610
 21
-13.426428
 39
0
 62
0
  0
LINE
  8
Background
  6
CONTINUOUS
 10
27.212610
 20
-13.426428
 11
26.952239
 21
-13.324783
 39
0
 62
0
  0
LINE
  8
Background
  6
CONTINUOUS
 10
26.952239
 20
-13.324783
 11
27.490808
 21
-13.174970
 39
0
 62
0
  0
SOLID
 62
7
 10
27.573750
 20
-14.600000
 11
27.573750
 21
-11.600000
 12
37.126250
 22
-14.600000
 13
37.126250
 23
-11.600000
  0
LINE
  8
Background
  6
CONTINUOUS
 10
27.573750
 20
-11.600000
 11
37.126250
 21
-11.600000
 39
0
 62
0
  0
LINE
  8
Background
  6
CONTINUOUS
 10
37.126250
 20
-11.600000
 11
37.126250
 21
-14.600000
 39
0
 62
0
  0
LINE
  8
Background
  6
CONTINUOUS
 10
37.126250
 20
-14.600000
 11
27.573750
 21
-14.600000
 39
0
 62
0
  0
LINE
  8
Background
  6
CONTINUOUS
 10
27.573750
 20
-14.600000
 11
27.573750
 21
-11.600000
 39
0
 62
0
  0
TEXT
  8
Background
  6
CONTINUOUS
 10
32.350000
 20
-13.295000
 40
0.800000
 50
0.000000
 72
1
  7
0
  1
Something happens here..
 39
1
 62
0
  0
SOLID
 62
7
 10
26.000000
 20
-31.000000
 11
26.000000
 21
-27.000000
 12
37.572500
 22
-31.000000
 13
37.572500
 23
-27.000000
  0
LINE
  8
Background
  6
CONTINUOUS
 10
26.000000
 20
-27.000000
 11
37.572500
 21
-27.000000
 39
0
 62
0
  0
LINE
  8
Background
  6
CONTINUOUS
 10
37.572500
 20
-27.000000
 11
37.572500
 21
-31.000000
 39
0
 62
0
  0
LINE
  8
Background
  6
CONTINUOUS
 10
37.572500
 20
-31.000000
 11
26.000000
 21
-31.000000
 39
0
 62
0
  0
LINE
  8
Background
  6
CONTINUOUS
 10
26.000000
 20
-31.000000
 11
26.000000
 21
-27.000000
 39
0
 62
0
  0
TEXT
  8
Background
  6
CONTINUOUS
 10
31.786250
 20
-28.795000
 40
0.800000
 50
0.000000
 72
1
  7
0
  1
Data ingested
 39
1
 62
0
  0
TEXT
  8
Background
  6
CONTINUOUS
 10
31.786250
 20
-29.595000
 40
0.800000
 50
0.000000
 72
1
  7
0
  1
 into Swath Viewer
 39
1
 62
0
  0
LINE
  8
Background
  6
CONTINUOUS
 10
31.855330
 20
-16.600000
 11
33.860660
 21
-18.600000
 39
0
 62
0
  0
LINE
  8
Background
  6
CONTINUOUS
 10
33.860660
 20
-18.600000
 11
31.855330
 21
-20.600000
 39
0
 62
0
  0
LINE
  8
Background
  6
CONTINUOUS
 10
31.855330
 20
-20.600000
 11
29.850000
 21
-18.600000
 39
0
 62
0
  0
LINE
  8
Background
  6
CONTINUOUS
 10
29.850000
 20
-18.600000
 11
31.855330
 21
-16.600000
 39
0
 62
0
  0
TEXT
  8
Background
  6
CONTINUOUS
 10
31.855330
 20
-18.795000
 40
0.800000
 50
0.000000
 72
1
  7
0
  1
QC
 39
1
 62
0
  0
LINE
  8
Background
  6
CONTINUOUS
 10
31.850000
 20
-14.600000
 11
31.854033
 21
-16.113198
 39
0
 62
0
  0
LINE
  8
Background
  6
CONTINUOUS
 10
31.855032
 20
-16.488197
 11
31.603700
 21
-15.988865
 39
0
 62
0
  0
LINE
  8
Background
  6
CONTINUOUS
 10
31.603700
 20
-15.988865
 11
31.854033
 21
-16.113198
 39
0
 62
0
  0
LINE
  8
Background
  6
CONTINUOUS
 10
31.854033
 20
-16.113198
 11
32.103699
 21
-15.987533
 39
0
 62
0
  0
LINE
  8
Background
  6
CONTINUOUS
 10
32.103699
 20
-15.987533
 11
31.855032
 21
-16.488197
 39
0
 62
0
  0
LINE
  8
Background
  6
CONTINUOUS
 10
33.860660
 20
-18.600000
 11
43.363236
 21
-18.600000
 39
0
 62
0
  0
LINE
  8
Background
  6
CONTINUOUS
 10
43.738236
 20
-18.600000
 11
43.238236
 21
-18.850000
 39
0
 62
0
  0
LINE
  8
Background
  6
CONTINUOUS
 10
43.238236
 20
-18.850000
 11
43.363236
 21
-18.600000
 39
0
 62
0
  0
LINE
  8
Background
  6
CONTINUOUS
 10
43.363236
 20
-18.600000
 11
43.238236
 21
-18.350000
 39
0
 62
0
  0
LINE
  8
Background
  6
CONTINUOUS
 10
43.238236
 20
-18.350000
 11
43.738236
 21
-18.600000
 39
0
 62
0
  0
TEXT
  8
Background
  6
CONTINUOUS
 10
41.850000
 20
-17.600000
 40
0.800000
 50
0.000000
 72
0
  7
0
  1
Fail.
 39
1
 62
0
  0
LINE
  8
Background
  6
CONTINUOUS
 10
31.855330
 20
-20.600000
 11
31.807051
 21
-26.470635
 39
0
 62
0
  0
LINE
  8
Background
  6
CONTINUOUS
 10
31.803967
 20
-26.845622
 11
31.558087
 21
-26.343583
 39
0
 62
0
  0
LINE
  8
Background
  6
CONTINUOUS
 10
31.558087
 20
-26.343583
 11
31.807051
 21
-26.470635
 39
0
 62
0
  0
LINE
  8
Background
  6
CONTINUOUS
 10
31.807051
 20
-26.470635
 11
32.058071
 21
-26.347695
 39
0
 62
0
  0
LINE
  8
Background
  6
CONTINUOUS
 10
32.058071
 20
-26.347695
 11
31.803967
 21
-26.845622
 39
0
 62
0
  0
TEXT
  8
Background
  6
CONTINUOUS
 10
24.850000
 20
-9.600000
 40
0.800000
 50
0.000000
 72
0
  7
0
  1
QC Process
 39
1
 62
0
  0
TEXT
  8
Background
  6
CONTINUOUS
 10
32.850000
 20
-16.825000
 40
0.800000
 50
0.000000
 72
0
  7
0
  1

 39
1
 62
0
  0
TEXT
  8
Background
  6
CONTINUOUS
 10
32.850000
 20
-16.825000
 40
0.800000
 50
0.000000
 72
0
  7
0
  1

 39
1
 62
0
  0
TEXT
  8
Background
  6
CONTINUOUS
 10
34.093700
 20
-22.600000
 40
0.800000
 50
0.000000
 72
0
  7
0
  1
Pass
 39
1
 62
0
  0
SOLID
 62
7
 10
10.800000
 20
-15.650000
 11
10.800000
 21
-12.650000
 12
19.800000
 22
-15.650000
 13
19.800000
 23
-12.650000
  0
LINE
  8
Background
  6
CONTINUOUS
 10
10.800000
 20
-12.650000
 11
19.800000
 21
-12.650000
 39
0
 62
0
  0
LINE
  8
Background
  6
CONTINUOUS
 10
19.800000
 20
-12.650000
 11
19.800000
 21
-15.650000
 39
0
 62
0
  0
LINE
  8
Background
  6
CONTINUOUS
 10
19.800000
 20
-15.650000
 11
10.800000
 21
-15.650000
 39
0
 62
0
  0
LINE
  8
Background
  6
CONTINUOUS
 10
10.800000
 20
-15.650000
 11
10.800000
 21
-12.650000
 39
0
 62
0
  0
TEXT
  8
Background
  6
CONTINUOUS
 10
15.300000
 20
-13.945000
 40
0.800000
 50
0.000000
 72
1
  7
0
  1
Update tracking
 39
1
 62
0
  0
TEXT
  8
Background
  6
CONTINUOUS
 10
15.300000
 20
-14.745000
 40
0.800000
 50
0.000000
 72
1
  7
0
  1
catalog
 39
1
 62
0
  0
TEXT
  8
Background
  6
CONTINUOUS
 10
15.700000
 20
-10.550000
 40
0.800000
 50
0.000000
 72
0
  7
0
  1
Notified of shipment
 39
1
 62
0
  0
LINE
  8
Background
  6
CONTINUOUS
 10
14.800000
 20
-15.650000
 11
14.800000
 21
-18.163197
 39
0
 62
0
  0
LINE
  8
Background
  6
CONTINUOUS
 10
14.800000
 20
-18.538197
 11
14.550000
 21
-18.038197
 39
0
 62
0
  0
LINE
  8
Background
  6
CONTINUOUS
 10
14.550000
 20
-18.038197
 11
14.800000
 21
-18.163197
 39
0
 62
0
  0
LINE
  8
Background
  6
CONTINUOUS
 10
14.800000
 20
-18.163197
 11
15.050000
 21
-18.038197
 39
0
 62
0
  0
LINE
  8
Background
  6
CONTINUOUS
 10
15.050000
 20
-18.038197
 11
14.800000
 21
-18.538197
 39
0
 62
0
  0
SOLID
 62
7
 10
10.581250
 20
-21.950000
 11
10.581250
 21
-18.450000
 12
19.718750
 22
-21.950000
 13
19.718750
 23
-18.450000
  0
LINE
  8
Background
  6
CONTINUOUS
 10
10.581250
 20
-18.450000
 11
19.718750
 21
-18.450000
 39
0
 62
0
  0
LINE
  8
Background
  6
CONTINUOUS
 10
19.718750
 20
-18.450000
 11
19.718750
 21
-21.950000
 39
0
 62
0
  0
LINE
  8
Background
  6
CONTINUOUS
 10
19.718750
 20
-21.950000
 11
10.581250
 21
-21.950000
 39
0
 62
0
  0
LINE
  8
Background
  6
CONTINUOUS
 10
10.581250
 20
-21.950000
 11
10.581250
 21
-18.450000
 39
0
 62
0
  0
TEXT
  8
Background
  6
CONTINUOUS
 10
15.150000
 20
-19.595000
 40
0.800000
 50
0.000000
 72
1
  7
0
  1
Update tracking 
 39
1
 62
0
  0
TEXT
  8
Background
  6
CONTINUOUS
 10
15.150000
 20
-20.395000
 40
0.800000
 50
0.000000
 72
1
  7
0
  1
catalog &
 39
1
 62
0
  0
TEXT
  8
Background
  6
CONTINUOUS
 10
15.150000
 20
-21.195000
 40
0.800000
 50
0.000000
 72
1
  7
0
  1
verify manifest
 39
1
 62
0
  0
TEXT
  8
Background
  6
CONTINUOUS
 10
15.800000
 20
-17.650000
 40
0.800000
 50
0.000000
 72
0
  7
0
  1
Data Arrives
 39
1
 62
0
  0
LINE
  8
Background
  6
CONTINUOUS
 10
14.800000
 20
-9.650000
 11
14.800000
 21
-12.163197
 39
0
 62
0
  0
LINE
  8
Background
  6
CONTINUOUS
 10
14.800000
 20
-12.538197
 11
14.550000
 21
-12.038197
 39
0
 62
0
  0
LINE
  8
Background
  6
CONTINUOUS
 10
14.550000
 20
-12.038197
 11
14.800000
 21
-12.163197
 39
0
 62
0
  0
LINE
  8
Background
  6
CONTINUOUS
 10
14.800000
 20
-12.163197
 11
15.050000
 21
-12.038197
 39
0
 62
0
  0
LINE
  8
Background
  6
CONTINUOUS
 10
15.050000
 20
-12.038197
 11
14.800000
 21
-12.538197
 39
0
 62
0
  0
TEXT
  8
Background
  6
CONTINUOUS
 10
13.900000
 20
-6.900000
 40
1.058333
 50
0.000000
 72
0
  7
0
  1
Overview of the ingestion process for the mosaics
 39
1
 62
0
  0
SOLID
 62
7
 10
11.000000
 20
-34.000000
 11
11.000000
 21
-30.000000
 12
22.572500
 22
-34.000000
 13
22.572500
 23
-30.000000
  0
LINE
  8
Background
  6
CONTINUOUS
 10
11.000000
 20
-30.000000
 11
22.572500
 21
-30.000000
 39
0
 62
0
  0
LINE
  8
Background
  6
CONTINUOUS
 10
22.572500
 20
-30.000000
 11
22.572500
 21
-34.000000
 39
0
 62
0
  0
LINE
  8
Background
  6
CONTINUOUS
 10
22.572500
 20
-34.000000
 11
11.000000
 21
-34.000000
 39
0
 62
0
  0
LINE
  8
Background
  6
CONTINUOUS
 10
11.000000
 20
-34.000000
 11
11.000000
 21
-30.000000
 39
0
 62
0
  0
TEXT
  8
Background
  6
CONTINUOUS
 10
16.786250
 20
-31.795000
 40
0.800000
 50
0.000000
 72
1
  7
0
  1
Data Prep-ed for 
 39
1
 62
0
  0
TEXT
  8
Background
  6
CONTINUOUS
 10
16.786250
 20
-32.595000
 40
0.800000
 50
0.000000
 72
1
  7
0
  1
serving
 39
1
 62
0
  0
SOLID
 62
7
 10
26.000000
 20
-37.000000
 11
26.000000
 21
-33.000000
 12
37.572500
 22
-37.000000
 13
37.572500
 23
-33.000000
  0
LINE
  8
Background
  6
CONTINUOUS
 10
26.000000
 20
-33.000000
 11
37.572500
 21
-33.000000
 39
0
 62
0
  0
LINE
  8
Background
  6
CONTINUOUS
 10
37.572500
 20
-33.000000
 11
37.572500
 21
-37.000000
 39
0
 62
0
  0
LINE
  8
Background
  6
CONTINUOUS
 10
37.572500
 20
-37.000000
 11
26.000000
 21
-37.000000
 39
0
 62
0
  0
LINE
  8
Background
  6
CONTINUOUS
 10
26.000000
 20
-37.000000
 11
26.000000
 21
-33.000000
 39
0
 62
0
  0
TEXT
  8
Background
  6
CONTINUOUS
 10
31.786250
 20
-34.795000
 40
0.800000
 50
0.000000
 72
1
  7
0
  1
Data added to SDMI catalog
 39
1
 62
0
  0
TEXT
  8
Background
  6
CONTINUOUS
 10
31.786250
 20
-35.595000
 40
0.800000
 50
0.000000
 72
1
  7
0
  1
and is visable in the Browse site
 39
1
 62
0
  0
LINE
  8
Background
  6
CONTINUOUS
 10
26.000000
 20
-29.000000
 11
22.938807
 21
-31.679381
 39
0
 62
0
  0
LINE
  8
Background
  6
CONTINUOUS
 10
22.656629
 20
-31.926364
 11
22.868211
 21
-31.408935
 39
0
 62
0
  0
LINE
  8
Background
  6
CONTINUOUS
 10
22.868211
 20
-31.408935
 11
22.938807
 21
-31.679381
 39
0
 62
0
  0
LINE
  8
Background
  6
CONTINUOUS
 10
22.938807
 20
-31.679381
 11
23.197522
 21
-31.785172
 39
0
 62
0
  0
LINE
  8
Background
  6
CONTINUOUS
 10
23.197522
 20
-31.785172
 11
22.656629
 21
-31.926364
 39
0
 62
0
  0
LINE
  8
Background
  6
CONTINUOUS
 10
31.786250
 20
-31.000000
 11
31.786250
 21
-32.513197
 39
0
 62
0
  0
LINE
  8
Background
  6
CONTINUOUS
 10
31.786250
 20
-32.888197
 11
31.536250
 21
-32.388197
 39
0
 62
0
  0
LINE
  8
Background
  6
CONTINUOUS
 10
31.536250
 20
-32.388197
 11
31.786250
 21
-32.513197
 39
0
 62
0
  0
LINE
  8
Background
  6
CONTINUOUS
 10
31.786250
 20
-32.513197
 11
32.036250
 21
-32.388197
 39
0
 62
0
  0
LINE
  8
Background
  6
CONTINUOUS
 10
32.036250
 20
-32.388197
 11
31.786250
 21
-32.888197
 39
0
 62
0
  0
SOLID
 62
7
 10
11.000000
 20
-40.000000
 11
11.000000
 21
-36.000000
 12
22.572500
 22
-40.000000
 13
22.572500
 23
-36.000000
  0
LINE
  8
Background
  6
CONTINUOUS
 10
11.000000
 20
-36.000000
 11
22.572500
 21
-36.000000
 39
0
 62
0
  0
LINE
  8
Background
  6
CONTINUOUS
 10
22.572500
 20
-36.000000
 11
22.572500
 21
-40.000000
 39
0
 62
0
  0
LINE
  8
Background
  6
CONTINUOUS
 10
22.572500
 20
-40.000000
 11
11.000000
 21
-40.000000
 39
0
 62
0
  0
LINE
  8
Background
  6
CONTINUOUS
 10
11.000000
 20
-40.000000
 11
11.000000
 21
-36.000000
 39
0
 62
0
  0
TEXT
  8
Background
  6
CONTINUOUS
 10
16.786250
 20
-37.795000
 40
0.800000
 50
0.000000
 72
1
  7
0
  1
Local data services updated
 39
1
 62
0
  0
TEXT
  8
Background
  6
CONTINUOUS
 10
16.786250
 20
-38.595000
 40
0.800000
 50
0.000000
 72
1
  7
0
  1
(tiles, WMS)
 39
1
 62
0
  0
SOLID
 62
7
 10
11.000000
 20
-46.000000
 11
11.000000
 21
-42.000000
 12
22.572500
 22
-46.000000
 13
22.572500
 23
-42.000000
  0
LINE
  8
Background
  6
CONTINUOUS
 10
11.000000
 20
-42.000000
 11
22.572500
 21
-42.000000
 39
0
 62
0
  0
LINE
  8
Background
  6
CONTINUOUS
 10
22.572500
 20
-42.000000
 11
22.572500
 21
-46.000000
 39
0
 62
0
  0
LINE
  8
Background
  6
CONTINUOUS
 10
22.572500
 20
-46.000000
 11
11.000000
 21
-46.000000
 39
0
 62
0
  0
LINE
  8
Background
  6
CONTINUOUS
 10
11.000000
 20
-46.000000
 11
11.000000
 21
-42.000000
 39
0
 62
0
  0
TEXT
  8
Background
  6
CONTINUOUS
 10
16.786250
 20
-43.795000
 40
0.800000
 50
0.000000
 72
1
  7
0
  1
Remote data services
 39
1
 62
0
  0
TEXT
  8
Background
  6
CONTINUOUS
 10
16.786250
 20
-44.595000
 40
0.800000
 50
0.000000
 72
1
  7
0
  1
(mirrors) updated
 39
1
 62
0
  0
LINE
  8
Background
  6
CONTINUOUS
 10
16.786250
 20
-34.000000
 11
16.786250
 21
-35.513197
 39
0
 62
0
  0
LINE
  8
Background
  6
CONTINUOUS
 10
16.786250
 20
-35.888197
 11
16.536250
 21
-35.388197
 39
0
 62
0
  0
LINE
  8
Background
  6
CONTINUOUS
 10
16.536250
 20
-35.388197
 11
16.786250
 21
-35.513197
 39
0
 62
0
  0
LINE
  8
Background
  6
CONTINUOUS
 10
16.786250
 20
-35.513197
 11
17.036250
 21
-35.388197
 39
0
 62
0
  0
LINE
  8
Background
  6
CONTINUOUS
 10
17.036250
 20
-35.388197
 11
16.786250
 21
-35.888197
 39
0
 62
0
  0
LINE
  8
Background
  6
CONTINUOUS
 10
16.786250
 20
-40.048828
 11
16.786250
 21
-41.513197
 39
0
 62
0
  0
LINE
  8
Background
  6
CONTINUOUS
 10
16.786250
 20
-41.888197
 11
16.536250
 21
-41.388197
 39
0
 62
0
  0
LINE
  8
Background
  6
CONTINUOUS
 10
16.536250
 20
-41.388197
 11
16.786250
 21
-41.513197
 39
0
 62
0
  0
LINE
  8
Background
  6
CONTINUOUS
 10
16.786250
 20
-41.513197
 11
17.036250
 21
-41.388197
 39
0
 62
0
  0
LINE
  8
Background
  6
CONTINUOUS
 10
17.036250
 20
-41.388197
 11
16.786250
 21
-41.888197
 39
0
 62
0
0
ENDSEC
0
EOF
